<svg version="1.1" id="Layer_1" xmlns="http://www.w3.org/2000/svg" xmlns:xlink="http://www.w3.org/1999/xlink" width="20" height="20"
	 viewBox="0 0 300.02 300.02" style="enable-background:new 0 0 300.02 300.02;" xml:space="preserve">
	<path id="XMLID_463_" d="M285,260.01H15c-8.284,0-15,6.716-15,15s6.716,15,15,15h270c8.284,0,15-6.716,15-15
		S293.284,260.01,285,260.01z"/>
	<path id="XMLID_464_" d="M15,210.01h270c0.006-0.001,0.013-0.001,0.02,0c8.284,0,15-6.716,15-15c0-3.774-1.394-7.223-3.695-9.859
		L161.747,15.682c-2.845-3.583-7.171-5.672-11.747-5.672c-4.576,0-8.901,2.088-11.747,5.672l-135,170
		c-3.58,4.508-4.264,10.667-1.761,15.85C3.995,206.716,9.244,210.01,15,210.01z M150,49.13l103.934,130.88H46.066L150,49.13z"/>
</svg>
